<svg width="215" height="52" viewBox="0 0 215 52" fill="none" xmlns="http://www.w3.org/2000/svg">
<path d="M14.3955 27.3016C16.2475 27.3016 17.5804 26.8596 18.3942 25.9757C19.2079 25.0918 19.6148 23.8572 19.6148 22.2717C19.6148 21.5702 19.5096 20.9318 19.2991 20.3566C19.0887 19.7813 18.766 19.2903 18.331 18.8834C17.9101 18.4625 17.37 18.1398 16.7105 17.9153C16.0651 17.6908 15.2935 17.5786 14.3955 17.5786H10.6915V27.3016H14.3955ZM14.3955 12.2541C16.5562 12.2541 18.4082 12.5136 19.9515 13.0327C21.5089 13.5378 22.7857 14.2393 23.7818 15.1373C24.792 16.0352 25.5356 17.0945 26.0127 18.3152C26.4897 19.5358 26.7282 20.8547 26.7282 22.2717C26.7282 23.801 26.4827 25.2041 25.9916 26.4808C25.5006 27.7576 24.7499 28.852 23.7397 29.7639C22.7296 30.6759 21.4458 31.3915 19.8884 31.9106C18.3451 32.4157 16.5141 32.6682 14.3955 32.6682H10.6915V42.9174H3.57812V12.2541H14.3955ZM46.9303 31.195L44.0891 22.7979C43.8787 22.2647 43.6542 21.6404 43.4157 20.9248C43.1772 20.1952 42.9386 19.4095 42.7001 18.5677C42.4897 19.4236 42.2652 20.2163 42.0267 20.9459C41.7881 21.6754 41.5637 22.3068 41.3532 22.84L38.5331 31.195H46.9303ZM58.2317 42.9174H52.7178C52.1005 42.9174 51.6024 42.7771 51.2236 42.4965C50.8447 42.2018 50.5571 41.83 50.3607 41.3811L48.5508 36.0355H36.8916L35.0816 41.3811C34.9273 41.7739 34.6467 42.1317 34.2398 42.4544C33.847 42.7631 33.3559 42.9174 32.7666 42.9174H27.2106L39.0803 12.2541H46.362L58.2317 42.9174ZM92.2423 27.5752C92.2423 29.792 91.8565 31.8545 91.0848 33.7626C90.3271 35.6707 89.2538 37.3333 87.8648 38.7504C86.4758 40.1534 84.7992 41.2548 82.8349 42.0545C80.8847 42.8543 78.717 43.2541 76.3319 43.2541C73.9467 43.2541 71.772 42.8543 69.8077 42.0545C67.8435 41.2548 66.1599 40.1534 64.7568 38.7504C63.3678 37.3333 62.2875 35.6707 61.5158 33.7626C60.7582 31.8545 60.3794 29.792 60.3794 27.5752C60.3794 25.3584 60.7582 23.2959 61.5158 21.3878C62.2875 19.4797 63.3678 17.8241 64.7568 16.4211C66.1599 15.018 67.8435 13.9166 69.8077 13.1169C71.772 12.3172 73.9467 11.9173 76.3319 11.9173C78.717 11.9173 80.8847 12.3242 82.8349 13.138C84.7992 13.9377 86.4758 15.0391 87.8648 16.4421C89.2538 17.8451 90.3271 19.5007 91.0848 21.4089C91.8565 23.317 92.2423 25.3724 92.2423 27.5752ZM84.9605 27.5752C84.9605 26.0599 84.7641 24.699 84.3713 23.4924C83.9784 22.2717 83.4102 21.2405 82.6666 20.3987C81.937 19.5568 81.039 18.9115 79.9727 18.4625C78.9064 18.0135 77.6928 17.789 76.3319 17.789C74.9569 17.789 73.7292 18.0135 72.6489 18.4625C71.5826 18.9115 70.6776 19.5568 69.934 20.3987C69.2044 21.2405 68.6432 22.2717 68.2504 23.4924C67.8575 24.699 67.6611 26.0599 67.6611 27.5752C67.6611 29.1045 67.8575 30.4795 68.2504 31.7001C68.6432 32.9067 69.2044 33.9309 69.934 34.7728C70.6776 35.6146 71.5826 36.26 72.6489 36.709C73.7292 37.1439 74.9569 37.3614 76.3319 37.3614C77.6928 37.3614 78.9064 37.1439 79.9727 36.709C81.039 36.26 81.937 35.6146 82.6666 34.7728C83.4102 33.9309 83.9784 32.9067 84.3713 31.7001C84.7641 30.4795 84.9605 29.1045 84.9605 27.5752Z" fill="#11121A"/>
<line x1="105.249" y1="7.12564" x2="105.249" y2="45.7091" stroke="#2B2D42" stroke-opacity="0.5" stroke-width="1.37798"/>
<path d="M119.931 17.4635C120.271 17.4635 120.567 17.4222 120.82 17.3395C121.072 17.2523 121.281 17.1305 121.447 16.9744C121.617 16.8136 121.743 16.6207 121.826 16.3956C121.908 16.1659 121.95 15.911 121.95 15.6308C121.95 15.3644 121.908 15.1233 121.826 14.9074C121.743 14.6915 121.619 14.5078 121.454 14.3562C121.288 14.2046 121.079 14.0898 120.827 14.0117C120.574 13.929 120.276 13.8877 119.931 13.8877H118.546V17.4635H119.931ZM119.931 12.4546C120.597 12.4546 121.174 12.5327 121.66 12.6888C122.147 12.845 122.549 13.0632 122.866 13.3434C123.183 13.6236 123.417 13.9589 123.569 14.3493C123.725 14.7397 123.803 15.1669 123.803 15.6308C123.803 16.1131 123.723 16.5564 123.562 16.9606C123.401 17.3602 123.16 17.7047 122.839 17.9941C122.517 18.2834 122.113 18.5085 121.626 18.6693C121.144 18.83 120.579 18.9104 119.931 18.9104H118.546V22.4174H116.693V12.4546H119.931ZM131.019 15.3483V22.4174H129.979C129.754 22.4174 129.612 22.314 129.552 22.1073L129.435 21.5424C129.145 21.8363 128.826 22.0752 128.477 22.2589C128.128 22.4381 127.717 22.5276 127.244 22.5276C126.858 22.5276 126.516 22.4633 126.217 22.3347C125.923 22.2015 125.675 22.0155 125.473 21.7766C125.271 21.5378 125.117 21.2553 125.011 20.9292C124.91 20.5985 124.86 20.2356 124.86 19.8406V15.3483H126.562V19.8406C126.562 20.2723 126.66 20.6076 126.858 20.8465C127.06 21.0807 127.361 21.1979 127.761 21.1979C128.055 21.1979 128.33 21.1336 128.587 21.005C128.845 20.8718 129.088 20.6903 129.318 20.4607V15.3483H131.019ZM134.298 16.2165C134.441 16.0741 134.59 15.9432 134.746 15.8237C134.907 15.6997 135.075 15.5964 135.249 15.5137C135.428 15.4264 135.619 15.3598 135.821 15.3139C136.023 15.2634 136.244 15.2381 136.483 15.2381C136.868 15.2381 137.211 15.3047 137.509 15.4379C137.808 15.5665 138.056 15.7503 138.253 15.9891C138.455 16.2234 138.607 16.5058 138.708 16.8366C138.814 17.1627 138.866 17.5233 138.866 17.9183V22.4174H137.165V17.9183C137.165 17.4865 137.066 17.1535 136.868 16.9192C136.671 16.6804 136.37 16.561 135.966 16.561C135.672 16.561 135.396 16.6276 135.139 16.7608C134.882 16.894 134.638 17.0754 134.409 17.3051V22.4174H132.707V15.3483H133.747C133.968 15.3483 134.112 15.4517 134.181 15.6584L134.298 16.2165ZM142.747 22.5276C142.132 22.5276 141.658 22.3554 141.328 22.0109C141.002 21.6618 140.839 21.1818 140.839 20.5709V16.623H140.115C140.023 16.623 139.945 16.5931 139.881 16.5334C139.817 16.4737 139.784 16.3841 139.784 16.2647V15.5895L140.921 15.4035L141.28 13.4743C141.302 13.3824 141.346 13.3112 141.41 13.2607C141.475 13.2102 141.557 13.1849 141.658 13.1849H142.54V15.4104H144.428V16.623H142.54V20.4538C142.54 20.6742 142.593 20.8465 142.699 20.9705C142.809 21.0945 142.958 21.1565 143.147 21.1565C143.252 21.1565 143.34 21.1451 143.408 21.1221C143.482 21.0945 143.544 21.067 143.595 21.0394C143.65 21.0118 143.698 20.9866 143.739 20.9636C143.781 20.9361 143.822 20.9223 143.863 20.9223C143.914 20.9223 143.955 20.9361 143.987 20.9636C144.019 20.9866 144.054 21.0233 144.091 21.0739L144.6 21.9006C144.352 22.1073 144.068 22.2635 143.746 22.3692C143.425 22.4748 143.092 22.5276 142.747 22.5276ZM148.592 15.2381C149.116 15.2381 149.591 15.3231 150.018 15.493C150.45 15.663 150.817 15.9041 151.121 16.2165C151.428 16.5288 151.665 16.9101 151.83 17.3602C151.996 17.8103 152.078 18.3133 152.078 18.8691C152.078 19.4295 151.996 19.9347 151.83 20.3849C151.665 20.835 151.428 21.2185 151.121 21.5355C150.817 21.8524 150.45 22.0959 150.018 22.2658C149.591 22.4358 149.116 22.5207 148.592 22.5207C148.064 22.5207 147.584 22.4358 147.152 22.2658C146.72 22.0959 146.35 21.8524 146.043 21.5355C145.74 21.2185 145.503 20.835 145.333 20.3849C145.168 19.9347 145.085 19.4295 145.085 18.8691C145.085 18.3133 145.168 17.8103 145.333 17.3602C145.503 16.9101 145.74 16.5288 146.043 16.2165C146.35 15.9041 146.72 15.663 147.152 15.493C147.584 15.3231 148.064 15.2381 148.592 15.2381ZM148.592 21.2117C149.18 21.2117 149.614 21.0141 149.894 20.6191C150.179 20.2241 150.321 19.6453 150.321 18.8829C150.321 18.1204 150.179 17.5393 149.894 17.1397C149.614 16.7401 149.18 16.5403 148.592 16.5403C147.995 16.5403 147.552 16.7424 147.262 17.1466C146.977 17.5462 146.835 18.125 146.835 18.8829C146.835 19.6408 146.977 20.2195 147.262 20.6191C147.552 21.0141 147.995 21.2117 148.592 21.2117ZM161.164 17.1535C160.972 16.9192 160.76 16.7539 160.531 16.6574C160.305 16.561 160.062 16.5127 159.8 16.5127C159.543 16.5127 159.311 16.561 159.104 16.6574C158.898 16.7539 158.721 16.9009 158.574 17.0984C158.427 17.2913 158.314 17.5393 158.236 17.8425C158.158 18.1411 158.119 18.4947 158.119 18.9035C158.119 19.3169 158.151 19.6683 158.216 19.9577C158.284 20.2425 158.381 20.4767 158.505 20.6605C158.629 20.8396 158.781 20.9705 158.96 21.0532C159.139 21.1313 159.339 21.1703 159.559 21.1703C159.913 21.1703 160.214 21.0968 160.462 20.9498C160.71 20.8029 160.944 20.5939 161.164 20.3229V17.1535ZM162.866 12.179V22.4174H161.826C161.601 22.4174 161.458 22.314 161.399 22.1073L161.254 21.4252C160.969 21.7514 160.641 22.0155 160.269 22.2176C159.901 22.4197 159.472 22.5207 158.98 22.5207C158.594 22.5207 158.241 22.4404 157.919 22.2796C157.598 22.1188 157.32 21.8869 157.086 21.5837C156.856 21.276 156.677 20.897 156.548 20.4469C156.424 19.9967 156.362 19.4823 156.362 18.9035C156.362 18.3799 156.433 17.893 156.576 17.4429C156.718 16.9927 156.923 16.6023 157.189 16.2716C157.455 15.9409 157.775 15.6837 158.147 15.4999C158.519 15.3116 158.937 15.2174 159.401 15.2174C159.796 15.2174 160.133 15.2794 160.413 15.4035C160.694 15.5275 160.944 15.6951 161.164 15.9064V12.179H162.866ZM169.1 18.0699C169.1 17.8494 169.068 17.6427 169.004 17.4498C168.944 17.2523 168.852 17.08 168.728 16.933C168.604 16.786 168.445 16.6712 168.253 16.5885C168.064 16.5013 167.844 16.4576 167.591 16.4576C167.1 16.4576 166.711 16.5977 166.427 16.8779C166.147 17.1581 165.967 17.5554 165.889 18.0699H169.1ZM165.855 19.0965C165.882 19.4593 165.947 19.774 166.048 20.0404C166.149 20.3022 166.282 20.5204 166.447 20.6949C166.613 20.8649 166.808 20.9935 167.033 21.0807C167.263 21.1634 167.515 21.2048 167.791 21.2048C168.066 21.2048 168.303 21.1726 168.501 21.1083C168.703 21.044 168.877 20.9728 169.024 20.8947C169.176 20.8166 169.307 20.7454 169.417 20.6811C169.532 20.6168 169.642 20.5847 169.748 20.5847C169.89 20.5847 169.996 20.6375 170.065 20.7431L170.554 21.3632C170.365 21.5837 170.154 21.7697 169.92 21.9213C169.686 22.0683 169.44 22.1877 169.183 22.2796C168.93 22.3669 168.671 22.4289 168.404 22.4656C168.142 22.5024 167.887 22.5207 167.639 22.5207C167.148 22.5207 166.691 22.4404 166.268 22.2796C165.846 22.1142 165.478 21.8731 165.166 21.5562C164.854 21.2346 164.608 20.8396 164.429 20.3711C164.249 19.898 164.16 19.3514 164.16 18.7313C164.16 18.249 164.238 17.7966 164.394 17.374C164.55 16.9468 164.773 16.577 165.062 16.2647C165.356 15.9478 165.712 15.6974 166.13 15.5137C166.553 15.33 167.028 15.2381 167.557 15.2381C168.002 15.2381 168.413 15.3093 168.79 15.4517C169.167 15.5941 169.49 15.8031 169.761 16.0787C170.032 16.3497 170.244 16.685 170.395 17.0846C170.551 17.4796 170.63 17.9321 170.63 18.4419C170.63 18.6991 170.602 18.8737 170.547 18.9655C170.492 19.0528 170.386 19.0965 170.23 19.0965H165.855ZM180.332 18.6555L179.12 15.3415C179.06 15.1945 178.998 15.0199 178.934 14.8178C178.87 14.6157 178.805 14.3975 178.741 14.1633C178.681 14.3975 178.619 14.618 178.555 14.8247C178.491 15.0268 178.429 15.2037 178.369 15.3552L177.163 18.6555H180.332ZM183.605 22.4174H182.172C182.011 22.4174 181.88 22.3783 181.779 22.3003C181.678 22.2176 181.603 22.1165 181.552 21.9971L180.808 19.9646H176.681L175.937 21.9971C175.9 22.1027 175.829 22.1992 175.723 22.2865C175.617 22.3738 175.487 22.4174 175.33 22.4174H173.884L177.804 12.4546H179.692L183.605 22.4174ZM186.056 20.5847C186.249 20.8189 186.458 20.9843 186.683 21.0807C186.913 21.1772 187.161 21.2254 187.427 21.2254C187.684 21.2254 187.916 21.1772 188.123 21.0807C188.33 20.9843 188.504 20.8373 188.647 20.6398C188.794 20.4423 188.906 20.1942 188.984 19.8957C189.062 19.5925 189.101 19.2365 189.101 18.8277C189.101 18.4144 189.067 18.0653 188.998 17.7805C188.934 17.4911 188.84 17.2568 188.716 17.0777C188.592 16.8986 188.44 16.7677 188.261 16.685C188.086 16.6023 187.886 16.561 187.661 16.561C187.308 16.561 187.007 16.6368 186.759 16.7883C186.511 16.9353 186.277 17.1443 186.056 17.4153V20.5847ZM185.966 16.3129C186.256 15.9868 186.584 15.7227 186.952 15.5206C187.319 15.3185 187.751 15.2174 188.247 15.2174C188.633 15.2174 188.984 15.2978 189.301 15.4586C189.623 15.6193 189.898 15.8536 190.128 16.1614C190.362 16.4645 190.541 16.8412 190.665 17.2913C190.794 17.7368 190.858 18.249 190.858 18.8277C190.858 19.356 190.787 19.8452 190.645 20.2953C190.502 20.7454 190.298 21.1359 190.032 21.4666C189.77 21.7973 189.45 22.0568 189.074 22.2451C188.702 22.4289 188.284 22.5207 187.82 22.5207C187.425 22.5207 187.087 22.461 186.807 22.3416C186.527 22.2176 186.277 22.0476 186.056 21.8317V24.7255H184.354V15.3483H185.395C185.615 15.3483 185.76 15.4517 185.829 15.6584L185.966 16.3129ZM195.314 15.2381C195.838 15.2381 196.313 15.3231 196.74 15.493C197.172 15.663 197.54 15.9041 197.843 16.2165C198.15 16.5288 198.387 16.9101 198.552 17.3602C198.718 17.8103 198.8 18.3133 198.8 18.8691C198.8 19.4295 198.718 19.9347 198.552 20.3849C198.387 20.835 198.15 21.2185 197.843 21.5355C197.54 21.8524 197.172 22.0959 196.74 22.2658C196.313 22.4358 195.838 22.5207 195.314 22.5207C194.786 22.5207 194.306 22.4358 193.874 22.2658C193.442 22.0959 193.073 21.8524 192.765 21.5355C192.462 21.2185 192.225 20.835 192.055 20.3849C191.89 19.9347 191.807 19.4295 191.807 18.8691C191.807 18.3133 191.89 17.8103 192.055 17.3602C192.225 16.9101 192.462 16.5288 192.765 16.2165C193.073 15.9041 193.442 15.663 193.874 15.493C194.306 15.3231 194.786 15.2381 195.314 15.2381ZM195.314 21.2117C195.902 21.2117 196.336 21.0141 196.616 20.6191C196.901 20.2241 197.044 19.6453 197.044 18.8829C197.044 18.1204 196.901 17.5393 196.616 17.1397C196.336 16.7401 195.902 16.5403 195.314 16.5403C194.717 16.5403 194.274 16.7424 193.984 17.1466C193.7 17.5462 193.557 18.125 193.557 18.8829C193.557 19.6408 193.7 20.2195 193.984 20.6191C194.274 21.0141 194.717 21.2117 195.314 21.2117ZM206.278 15.3483L202.426 24.3603C202.376 24.4798 202.309 24.5693 202.227 24.629C202.149 24.6934 202.027 24.7255 201.861 24.7255H200.594L201.917 21.8869L199.057 15.3483H200.552C200.686 15.3483 200.789 15.3805 200.862 15.4448C200.941 15.5091 200.998 15.5826 201.035 15.6653L202.537 19.3307C202.587 19.4547 202.629 19.5787 202.661 19.7028C202.697 19.8268 202.732 19.9531 202.764 20.0817C202.805 19.9531 202.847 19.8268 202.888 19.7028C202.929 19.5742 202.975 19.4478 203.026 19.3238L204.445 15.6653C204.482 15.5734 204.542 15.4976 204.624 15.4379C204.712 15.3782 204.808 15.3483 204.914 15.3483H206.278ZM210.036 15.2381C210.56 15.2381 211.035 15.3231 211.462 15.493C211.894 15.663 212.261 15.9041 212.565 16.2165C212.872 16.5288 213.109 16.9101 213.274 17.3602C213.44 17.8103 213.522 18.3133 213.522 18.8691C213.522 19.4295 213.44 19.9347 213.274 20.3849C213.109 20.835 212.872 21.2185 212.565 21.5355C212.261 21.8524 211.894 22.0959 211.462 22.2658C211.035 22.4358 210.56 22.5207 210.036 22.5207C209.508 22.5207 209.028 22.4358 208.596 22.2658C208.164 22.0959 207.794 21.8524 207.487 21.5355C207.184 21.2185 206.947 20.835 206.777 20.3849C206.612 19.9347 206.529 19.4295 206.529 18.8691C206.529 18.3133 206.612 17.8103 206.777 17.3602C206.947 16.9101 207.184 16.5288 207.487 16.2165C207.794 15.9041 208.164 15.663 208.596 15.493C209.028 15.3231 209.508 15.2381 210.036 15.2381ZM210.036 21.2117C210.624 21.2117 211.058 21.0141 211.338 20.6191C211.623 20.2241 211.765 19.6453 211.765 18.8829C211.765 18.1204 211.623 17.5393 211.338 17.1397C211.058 16.7401 210.624 16.5403 210.036 16.5403C209.439 16.5403 208.996 16.7424 208.706 17.1466C208.421 17.5462 208.279 18.125 208.279 18.8829C208.279 19.6408 208.421 20.2195 208.706 20.6191C208.996 21.0141 209.439 21.2117 210.036 21.2117ZM126.194 35.436C126.194 36.1663 126.072 36.8438 125.829 37.4685C125.59 38.0886 125.25 38.626 124.809 39.0807C124.368 39.5355 123.838 39.8915 123.218 40.1487C122.597 40.4013 121.908 40.5276 121.151 40.5276C120.397 40.5276 119.711 40.4013 119.09 40.1487C118.47 39.8915 117.938 39.5355 117.492 39.0807C117.051 38.626 116.709 38.0886 116.465 37.4685C116.222 36.8438 116.1 36.1663 116.1 35.436C116.1 34.7057 116.222 34.0304 116.465 33.4104C116.709 32.7857 117.051 32.246 117.492 31.7912C117.938 31.3365 118.47 30.9828 119.09 30.7302C119.711 30.473 120.397 30.3443 121.151 30.3443C121.656 30.3443 122.131 30.4041 122.577 30.5235C123.022 30.6383 123.431 30.8037 123.803 31.0196C124.175 31.2308 124.508 31.4904 124.802 31.7981C125.101 32.1013 125.353 32.4412 125.56 32.8178C125.767 33.1945 125.923 33.6033 126.029 34.0442C126.139 34.4852 126.194 34.9491 126.194 35.436ZM124.299 35.436C124.299 34.8894 124.226 34.4002 124.079 33.9684C123.932 33.5321 123.723 33.1623 123.452 32.8592C123.181 32.556 122.85 32.324 122.46 32.1633C122.074 32.0025 121.637 31.9221 121.151 31.9221C120.664 31.9221 120.225 32.0025 119.835 32.1633C119.449 32.324 119.118 32.556 118.842 32.8592C118.571 33.1623 118.362 33.5321 118.215 33.9684C118.068 34.4002 117.995 34.8894 117.995 35.436C117.995 35.9826 118.068 36.4741 118.215 36.9104C118.362 37.3422 118.571 37.7097 118.842 38.0128C119.118 38.3114 119.449 38.541 119.835 38.7018C120.225 38.8626 120.664 38.9429 121.151 38.9429C121.637 38.9429 122.074 38.8626 122.46 38.7018C122.85 38.541 123.181 38.3114 123.452 38.0128C123.723 37.7097 123.932 37.3422 124.079 36.9104C124.226 36.4741 124.299 35.9826 124.299 35.436ZM124.058 27.5953L121.826 29.5658C121.734 29.6485 121.647 29.699 121.564 29.7174C121.481 29.7357 121.376 29.7449 121.247 29.7449H120.014L121.454 27.8778C121.5 27.8135 121.546 27.7629 121.591 27.7262C121.637 27.6848 121.688 27.655 121.743 27.6366C121.798 27.6182 121.858 27.6068 121.922 27.6022C121.991 27.5976 122.071 27.5953 122.163 27.5953H124.058ZM129.134 38.5847C129.326 38.8189 129.535 38.9843 129.761 39.0807C129.99 39.1772 130.238 39.2254 130.505 39.2254C130.762 39.2254 130.994 39.1772 131.201 39.0807C131.407 38.9843 131.582 38.8373 131.724 38.6398C131.871 38.4423 131.984 38.1942 132.062 37.8957C132.14 37.5925 132.179 37.2365 132.179 36.8277C132.179 36.4144 132.144 36.0653 132.076 35.7805C132.011 35.4911 131.917 35.2568 131.793 35.0777C131.669 34.8986 131.517 34.7677 131.338 34.685C131.164 34.6023 130.964 34.561 130.739 34.561C130.385 34.561 130.084 34.6368 129.836 34.7883C129.588 34.9353 129.354 35.1443 129.134 35.4153V38.5847ZM129.044 34.3129C129.333 33.9868 129.662 33.7227 130.029 33.5206C130.397 33.3185 130.828 33.2174 131.325 33.2174C131.71 33.2174 132.062 33.2978 132.379 33.4586C132.7 33.6193 132.976 33.8536 133.206 34.1614C133.44 34.4645 133.619 34.8412 133.743 35.2913C133.872 35.7368 133.936 36.249 133.936 36.8277C133.936 37.356 133.865 37.8452 133.722 38.2953C133.58 38.7454 133.375 39.1359 133.109 39.4666C132.847 39.7973 132.528 40.0568 132.151 40.2451C131.779 40.4289 131.361 40.5207 130.897 40.5207C130.502 40.5207 130.165 40.461 129.885 40.3416C129.604 40.2176 129.354 40.0476 129.134 39.8317V42.7255H127.432V33.3483H128.472C128.693 33.3483 128.837 33.4517 128.906 33.6584L129.044 34.3129ZM142.301 40.4174H140.599V34.623H137.319V38.4538C137.319 38.6742 137.372 38.8465 137.478 38.9705C137.588 39.0945 137.737 39.1565 137.925 39.1565C138.031 39.1565 138.118 39.1451 138.187 39.1221C138.261 39.0945 138.323 39.067 138.373 39.0394C138.428 39.0118 138.477 38.9866 138.518 38.9636C138.559 38.9361 138.601 38.9223 138.642 38.9223C138.692 38.9223 138.734 38.9361 138.766 38.9636C138.798 38.9866 138.833 39.0233 138.869 39.0739L139.379 39.9006C139.131 40.1073 138.846 40.2635 138.525 40.3692C138.203 40.4748 137.87 40.5276 137.526 40.5276C136.91 40.5276 136.437 40.3554 136.106 40.0109C135.78 39.6618 135.617 39.1818 135.617 38.5709V34.623H134.894C134.802 34.623 134.724 34.5931 134.66 34.5334C134.595 34.4737 134.563 34.3841 134.563 34.2647V33.5895L135.7 33.3966L136.058 31.4743C136.081 31.3824 136.125 31.3112 136.189 31.2607C136.253 31.2102 136.336 31.1849 136.437 31.1849H137.319V33.4104H142.301V40.4174ZM142.597 31.2607C142.597 31.4077 142.567 31.5478 142.507 31.681C142.447 31.8096 142.367 31.9221 142.266 32.0186C142.17 32.1151 142.052 32.1931 141.915 32.2528C141.781 32.308 141.639 32.3355 141.487 32.3355C141.341 32.3355 141.203 32.308 141.074 32.2528C140.945 32.1931 140.833 32.1151 140.736 32.0186C140.64 31.9221 140.562 31.8096 140.502 31.681C140.447 31.5478 140.42 31.4077 140.42 31.2607C140.42 31.1091 140.447 30.969 140.502 30.8404C140.562 30.7072 140.64 30.5924 140.736 30.4959C140.833 30.3949 140.945 30.3168 141.074 30.2617C141.203 30.202 141.341 30.1721 141.487 30.1721C141.639 30.1721 141.781 30.202 141.915 30.2617C142.052 30.3168 142.17 30.3949 142.266 30.4959C142.367 30.5924 142.447 30.7072 142.507 30.8404C142.567 30.969 142.597 31.1091 142.597 31.2607ZM149.102 34.8435C149.051 34.9078 149.001 34.9583 148.95 34.995C148.904 35.0318 148.835 35.0502 148.743 35.0502C148.656 35.0502 148.571 35.0249 148.488 34.9744C148.406 34.9192 148.307 34.8595 148.192 34.7952C148.077 34.7263 147.94 34.6666 147.779 34.6161C147.623 34.561 147.427 34.5334 147.193 34.5334C146.895 34.5334 146.633 34.5885 146.408 34.6988C146.183 34.8044 145.994 34.9583 145.843 35.1604C145.696 35.3625 145.585 35.6082 145.512 35.8976C145.438 36.1824 145.402 36.5062 145.402 36.8691C145.402 37.2457 145.441 37.581 145.519 37.875C145.602 38.169 145.719 38.417 145.87 38.6191C146.022 38.8166 146.206 38.9682 146.421 39.0739C146.637 39.1749 146.881 39.2254 147.152 39.2254C147.423 39.2254 147.641 39.1933 147.806 39.129C147.976 39.0601 148.119 38.9866 148.233 38.9085C148.348 38.8258 148.447 38.7523 148.53 38.688C148.617 38.6191 148.713 38.5847 148.819 38.5847C148.957 38.5847 149.06 38.6375 149.129 38.7431L149.618 39.3632C149.43 39.5837 149.226 39.7697 149.005 39.9213C148.785 40.0683 148.555 40.1877 148.316 40.2796C148.082 40.3669 147.838 40.4289 147.586 40.4656C147.338 40.5024 147.09 40.5207 146.842 40.5207C146.405 40.5207 145.994 40.4404 145.608 40.2796C145.223 40.1142 144.885 39.8754 144.596 39.563C144.306 39.2507 144.077 38.8695 143.907 38.4193C143.741 37.9646 143.659 37.4478 143.659 36.8691C143.659 36.35 143.732 35.8701 143.879 35.4291C144.031 34.9835 144.251 34.6 144.54 34.2785C144.83 33.9524 145.188 33.6974 145.615 33.5137C146.042 33.33 146.534 33.2381 147.09 33.2381C147.618 33.2381 148.08 33.3231 148.475 33.493C148.874 33.663 149.233 33.9064 149.549 34.2234L149.102 34.8435ZM153.692 33.2381C154.216 33.2381 154.691 33.3231 155.118 33.493C155.55 33.663 155.918 33.9041 156.221 34.2165C156.528 34.5288 156.765 34.9101 156.93 35.3602C157.096 35.8103 157.178 36.3133 157.178 36.8691C157.178 37.4295 157.096 37.9347 156.93 38.3849C156.765 38.835 156.528 39.2185 156.221 39.5355C155.918 39.8524 155.55 40.0959 155.118 40.2658C154.691 40.4358 154.216 40.5207 153.692 40.5207C153.164 40.5207 152.684 40.4358 152.252 40.2658C151.82 40.0959 151.451 39.8524 151.143 39.5355C150.84 39.2185 150.603 38.835 150.433 38.3849C150.268 37.9347 150.185 37.4295 150.185 36.8691C150.185 36.3133 150.268 35.8103 150.433 35.3602C150.603 34.9101 150.84 34.5288 151.143 34.2165C151.451 33.9041 151.82 33.663 152.252 33.493C152.684 33.3231 153.164 33.2381 153.692 33.2381ZM153.692 39.2117C154.28 39.2117 154.714 39.0141 154.994 38.6191C155.279 38.2241 155.421 37.6453 155.421 36.8829C155.421 36.1204 155.279 35.5393 154.994 35.1397C154.714 34.7401 154.28 34.5403 153.692 34.5403C153.095 34.5403 152.652 34.7424 152.362 35.1466C152.078 35.5462 151.935 36.125 151.935 36.8829C151.935 37.6408 152.078 38.2195 152.362 38.6191C152.652 39.0141 153.095 39.2117 153.692 39.2117Z" fill="#11121A" fill-opacity="0.8"/>
</svg>
