<svg width="215" height="52" viewBox="0 0 215 52" fill="none" xmlns="http://www.w3.org/2000/svg">
<path d="M14.5148 27.3016C16.3668 27.3016 17.6997 26.8596 18.5134 25.9757C19.3272 25.0918 19.7341 23.8572 19.7341 22.2717C19.7341 21.5702 19.6289 20.9318 19.4184 20.3566C19.2079 19.7813 18.8852 19.2903 18.4503 18.8834C18.0294 18.4625 17.4892 18.1398 16.8298 17.9153C16.1844 17.6908 15.4127 17.5786 14.5148 17.5786H10.8108V27.3016H14.5148ZM14.5148 12.2541C16.6755 12.2541 18.5275 12.5136 20.0708 13.0327C21.6282 13.5378 22.9049 14.2393 23.9011 15.1373C24.9113 16.0352 25.6549 17.0945 26.1319 18.3152C26.609 19.5358 26.8475 20.8547 26.8475 22.2717C26.8475 23.801 26.6019 25.2041 26.1109 26.4808C25.6198 27.7576 24.8692 28.852 23.859 29.7639C22.8488 30.6759 21.565 31.3915 20.0077 31.9106C18.4643 32.4157 16.6334 32.6682 14.5148 32.6682H10.8108V42.9174H3.69739V12.2541H14.5148ZM47.0495 31.195L44.2084 22.7979C43.9979 22.2647 43.7734 21.6404 43.5349 20.9248C43.2964 20.1952 43.0579 19.4095 42.8194 18.5677C42.6089 19.4236 42.3844 20.2163 42.1459 20.9459C41.9074 21.6754 41.6829 22.3068 41.4725 22.84L38.6524 31.195H47.0495ZM58.351 42.9174H52.8371C52.2197 42.9174 51.7216 42.7771 51.3428 42.4965C50.964 42.2018 50.6764 41.83 50.48 41.3811L48.67 36.0355H37.0108L35.2009 41.3811C35.0466 41.7739 34.766 42.1317 34.3591 42.4544C33.9662 42.7631 33.4752 42.9174 32.8859 42.9174H27.3299L39.1996 12.2541H46.4813L58.351 42.9174ZM92.3615 27.5752C92.3615 29.792 91.9757 31.8545 91.204 33.7626C90.4464 35.6707 89.3731 37.3333 87.9841 38.7504C86.5951 40.1534 84.9184 41.2548 82.9542 42.0545C81.004 42.8543 78.8363 43.2541 76.4511 43.2541C74.066 43.2541 71.8913 42.8543 69.927 42.0545C67.9628 41.2548 66.2791 40.1534 64.8761 38.7504C63.4871 37.3333 62.4067 35.6707 61.6351 33.7626C60.8774 31.8545 60.4986 29.792 60.4986 27.5752C60.4986 25.3584 60.8774 23.2959 61.6351 21.3878C62.4067 19.4797 63.4871 17.8241 64.8761 16.4211C66.2791 15.018 67.9628 13.9166 69.927 13.1169C71.8913 12.3172 74.066 11.9173 76.4511 11.9173C78.8363 11.9173 81.004 12.3242 82.9542 13.138C84.9184 13.9377 86.5951 15.0391 87.9841 16.4421C89.3731 17.8451 90.4464 19.5007 91.204 21.4089C91.9757 23.317 92.3615 25.3724 92.3615 27.5752ZM85.0798 27.5752C85.0798 26.0599 84.8834 24.699 84.4905 23.4924C84.0977 22.2717 83.5294 21.2405 82.7858 20.3987C82.0563 19.5568 81.1583 18.9115 80.092 18.4625C79.0257 18.0135 77.8121 17.789 76.4511 17.789C75.0762 17.789 73.8485 18.0135 72.7682 18.4625C71.7019 18.9115 70.7969 19.5568 70.0533 20.3987C69.3237 21.2405 68.7625 22.2717 68.3696 23.4924C67.9768 24.699 67.7804 26.0599 67.7804 27.5752C67.7804 29.1045 67.9768 30.4795 68.3696 31.7001C68.7625 32.9067 69.3237 33.9309 70.0533 34.7728C70.7969 35.6146 71.7019 36.26 72.7682 36.709C73.8485 37.1439 75.0762 37.3614 76.4511 37.3614C77.8121 37.3614 79.0257 37.1439 80.092 36.709C81.1583 36.26 82.0563 35.6146 82.7858 34.7728C83.5294 33.9309 84.0977 32.9067 84.4905 31.7001C84.8834 30.4795 85.0798 29.1045 85.0798 27.5752Z" fill="white"/>
<line x1="105.368" y1="7.12564" x2="105.368" y2="45.7091" stroke="white" stroke-opacity="0.5" stroke-width="1.37798"/>
<path d="M120.05 17.4635C120.39 17.4635 120.686 17.4222 120.939 17.3395C121.192 17.2523 121.401 17.1305 121.566 16.9744C121.736 16.8136 121.862 16.6207 121.945 16.3956C122.028 16.1659 122.069 15.911 122.069 15.6308C122.069 15.3644 122.028 15.1233 121.945 14.9074C121.862 14.6915 121.738 14.5078 121.573 14.3562C121.408 14.2046 121.199 14.0898 120.946 14.0117C120.693 13.929 120.395 13.8877 120.05 13.8877H118.665V17.4635H120.05ZM120.05 12.4546C120.716 12.4546 121.293 12.5327 121.78 12.6888C122.267 12.845 122.668 13.0632 122.985 13.3434C123.302 13.6236 123.537 13.9589 123.688 14.3493C123.844 14.7397 123.922 15.1669 123.922 15.6308C123.922 16.1131 123.842 16.5564 123.681 16.9606C123.521 17.3602 123.279 17.7047 122.958 17.9941C122.636 18.2834 122.232 18.5085 121.745 18.6693C121.263 18.83 120.698 18.9104 120.05 18.9104H118.665V22.4174H116.812V12.4546H120.05ZM131.139 15.3483V22.4174H130.098C129.873 22.4174 129.731 22.314 129.671 22.1073L129.554 21.5424C129.265 21.8363 128.945 22.0752 128.596 22.2589C128.247 22.4381 127.836 22.5276 127.363 22.5276C126.977 22.5276 126.635 22.4633 126.336 22.3347C126.042 22.2015 125.794 22.0155 125.592 21.7766C125.39 21.5378 125.236 21.2553 125.131 20.9292C125.03 20.5985 124.979 20.2356 124.979 19.8406V15.3483H126.681V19.8406C126.681 20.2723 126.78 20.6076 126.977 20.8465C127.179 21.0807 127.48 21.1979 127.88 21.1979C128.174 21.1979 128.449 21.1336 128.707 21.005C128.964 20.8718 129.207 20.6903 129.437 20.4607V15.3483H131.139ZM134.418 16.2165C134.56 16.0741 134.709 15.9432 134.866 15.8237C135.026 15.6997 135.194 15.5964 135.368 15.5137C135.548 15.4264 135.738 15.3598 135.94 15.3139C136.142 15.2634 136.363 15.2381 136.602 15.2381C136.988 15.2381 137.33 15.3047 137.628 15.4379C137.927 15.5665 138.175 15.7503 138.372 15.9891C138.575 16.2234 138.726 16.5058 138.827 16.8366C138.933 17.1627 138.986 17.5233 138.986 17.9183V22.4174H137.284V17.9183C137.284 17.4865 137.185 17.1535 136.988 16.9192C136.79 16.6804 136.489 16.561 136.085 16.561C135.791 16.561 135.515 16.6276 135.258 16.7608C135.001 16.894 134.758 17.0754 134.528 17.3051V22.4174H132.826V15.3483H133.866C134.087 15.3483 134.232 15.4517 134.301 15.6584L134.418 16.2165ZM142.866 22.5276C142.251 22.5276 141.778 22.3554 141.447 22.0109C141.121 21.6618 140.958 21.1818 140.958 20.5709V16.623H140.234C140.143 16.623 140.064 16.5931 140 16.5334C139.936 16.4737 139.904 16.3841 139.904 16.2647V15.5895L141.04 15.4035L141.399 13.4743C141.422 13.3824 141.465 13.3112 141.53 13.2607C141.594 13.2102 141.677 13.1849 141.778 13.1849H142.66V15.4104H144.547V16.623H142.66V20.4538C142.66 20.6742 142.712 20.8465 142.818 20.9705C142.928 21.0945 143.078 21.1565 143.266 21.1565C143.372 21.1565 143.459 21.1451 143.528 21.1221C143.601 21.0945 143.663 21.067 143.714 21.0394C143.769 21.0118 143.817 20.9866 143.858 20.9636C143.9 20.9361 143.941 20.9223 143.982 20.9223C144.033 20.9223 144.074 20.9361 144.107 20.9636C144.139 20.9866 144.173 21.0233 144.21 21.0739L144.72 21.9006C144.472 22.1073 144.187 22.2635 143.865 22.3692C143.544 22.4748 143.211 22.5276 142.866 22.5276ZM148.711 15.2381C149.235 15.2381 149.71 15.3231 150.137 15.493C150.569 15.663 150.937 15.9041 151.24 16.2165C151.548 16.5288 151.784 16.9101 151.949 17.3602C152.115 17.8103 152.198 18.3133 152.198 18.8691C152.198 19.4295 152.115 19.9347 151.949 20.3849C151.784 20.835 151.548 21.2185 151.24 21.5355C150.937 21.8524 150.569 22.0959 150.137 22.2658C149.71 22.4358 149.235 22.5207 148.711 22.5207C148.183 22.5207 147.703 22.4358 147.271 22.2658C146.839 22.0959 146.47 21.8524 146.162 21.5355C145.859 21.2185 145.622 20.835 145.452 20.3849C145.287 19.9347 145.204 19.4295 145.204 18.8691C145.204 18.3133 145.287 17.8103 145.452 17.3602C145.622 16.9101 145.859 16.5288 146.162 16.2165C146.47 15.9041 146.839 15.663 147.271 15.493C147.703 15.3231 148.183 15.2381 148.711 15.2381ZM148.711 21.2117C149.299 21.2117 149.733 21.0141 150.013 20.6191C150.298 20.2241 150.441 19.6453 150.441 18.8829C150.441 18.1204 150.298 17.5393 150.013 17.1397C149.733 16.7401 149.299 16.5403 148.711 16.5403C148.114 16.5403 147.671 16.7424 147.381 17.1466C147.097 17.5462 146.954 18.125 146.954 18.8829C146.954 19.6408 147.097 20.2195 147.381 20.6191C147.671 21.0141 148.114 21.2117 148.711 21.2117ZM161.284 17.1535C161.091 16.9192 160.879 16.7539 160.65 16.6574C160.425 16.561 160.181 16.5127 159.919 16.5127C159.662 16.5127 159.43 16.561 159.224 16.6574C159.017 16.7539 158.84 16.9009 158.693 17.0984C158.546 17.2913 158.434 17.5393 158.355 17.8425C158.277 18.1411 158.238 18.4947 158.238 18.9035C158.238 19.3169 158.271 19.6683 158.335 19.9577C158.404 20.2425 158.5 20.4767 158.624 20.6605C158.748 20.8396 158.9 20.9705 159.079 21.0532C159.258 21.1313 159.458 21.1703 159.678 21.1703C160.032 21.1703 160.333 21.0968 160.581 20.9498C160.829 20.8029 161.063 20.5939 161.284 20.3229V17.1535ZM162.985 12.179V22.4174H161.945C161.72 22.4174 161.578 22.314 161.518 22.1073L161.373 21.4252C161.088 21.7514 160.76 22.0155 160.388 22.2176C160.021 22.4197 159.591 22.5207 159.1 22.5207C158.714 22.5207 158.36 22.4404 158.039 22.2796C157.717 22.1188 157.439 21.8869 157.205 21.5837C156.975 21.276 156.796 20.897 156.667 20.4469C156.543 19.9967 156.481 19.4823 156.481 18.9035C156.481 18.3799 156.553 17.893 156.695 17.4429C156.837 16.9927 157.042 16.6023 157.308 16.2716C157.575 15.9409 157.894 15.6837 158.266 15.4999C158.638 15.3116 159.056 15.2174 159.52 15.2174C159.915 15.2174 160.252 15.2794 160.533 15.4035C160.813 15.5275 161.063 15.6951 161.284 15.9064V12.179H162.985ZM169.219 18.0699C169.219 17.8494 169.187 17.6427 169.123 17.4498C169.063 17.2523 168.971 17.08 168.847 16.933C168.723 16.786 168.565 16.6712 168.372 16.5885C168.183 16.5013 167.963 16.4576 167.71 16.4576C167.219 16.4576 166.831 16.5977 166.546 16.8779C166.266 17.1581 166.087 17.5554 166.009 18.0699H169.219ZM165.974 19.0965C166.002 19.4593 166.066 19.774 166.167 20.0404C166.268 20.3022 166.401 20.5204 166.567 20.6949C166.732 20.8649 166.927 20.9935 167.152 21.0807C167.382 21.1634 167.635 21.2048 167.91 21.2048C168.186 21.2048 168.422 21.1726 168.62 21.1083C168.822 21.044 168.996 20.9728 169.143 20.8947C169.295 20.8166 169.426 20.7454 169.536 20.6811C169.651 20.6168 169.761 20.5847 169.867 20.5847C170.009 20.5847 170.115 20.6375 170.184 20.7431L170.673 21.3632C170.485 21.5837 170.273 21.7697 170.039 21.9213C169.805 22.0683 169.559 22.1877 169.302 22.2796C169.049 22.3669 168.79 22.4289 168.523 22.4656C168.262 22.5024 168.007 22.5207 167.759 22.5207C167.267 22.5207 166.81 22.4404 166.387 22.2796C165.965 22.1142 165.597 21.8731 165.285 21.5562C164.973 21.2346 164.727 20.8396 164.548 20.3711C164.369 19.898 164.279 19.3514 164.279 18.7313C164.279 18.249 164.357 17.7966 164.513 17.374C164.67 16.9468 164.892 16.577 165.182 16.2647C165.476 15.9478 165.832 15.6974 166.25 15.5137C166.672 15.33 167.148 15.2381 167.676 15.2381C168.121 15.2381 168.533 15.3093 168.909 15.4517C169.286 15.5941 169.61 15.8031 169.881 16.0787C170.152 16.3497 170.363 16.685 170.515 17.0846C170.671 17.4796 170.749 17.9321 170.749 18.4419C170.749 18.6991 170.721 18.8737 170.666 18.9655C170.611 19.0528 170.505 19.0965 170.349 19.0965H165.974ZM180.452 18.6555L179.239 15.3415C179.179 15.1945 179.117 15.0199 179.053 14.8178C178.989 14.6157 178.924 14.3975 178.86 14.1633C178.8 14.3975 178.738 14.618 178.674 14.8247C178.61 15.0268 178.548 15.2037 178.488 15.3552L177.282 18.6555H180.452ZM183.724 22.4174H182.291C182.131 22.4174 182 22.3783 181.899 22.3003C181.798 22.2176 181.722 22.1165 181.671 21.9971L180.927 19.9646H176.8L176.056 21.9971C176.019 22.1027 175.948 22.1992 175.842 22.2865C175.737 22.3738 175.606 22.4174 175.45 22.4174H174.003L177.923 12.4546H179.811L183.724 22.4174ZM186.175 20.5847C186.368 20.8189 186.577 20.9843 186.802 21.0807C187.032 21.1772 187.28 21.2254 187.546 21.2254C187.804 21.2254 188.036 21.1772 188.242 21.0807C188.449 20.9843 188.624 20.8373 188.766 20.6398C188.913 20.4423 189.025 20.1942 189.104 19.8957C189.182 19.5925 189.221 19.2365 189.221 18.8277C189.221 18.4144 189.186 18.0653 189.117 17.7805C189.053 17.4911 188.959 17.2568 188.835 17.0777C188.711 16.8986 188.559 16.7677 188.38 16.685C188.206 16.6023 188.006 16.561 187.781 16.561C187.427 16.561 187.126 16.6368 186.878 16.7883C186.63 16.9353 186.396 17.1443 186.175 17.4153V20.5847ZM186.086 16.3129C186.375 15.9868 186.704 15.7227 187.071 15.5206C187.438 15.3185 187.87 15.2174 188.366 15.2174C188.752 15.2174 189.104 15.2978 189.42 15.4586C189.742 15.6193 190.018 15.8536 190.247 16.1614C190.481 16.4645 190.661 16.8412 190.785 17.2913C190.913 17.7368 190.978 18.249 190.978 18.8277C190.978 19.356 190.906 19.8452 190.764 20.2953C190.622 20.7454 190.417 21.1359 190.151 21.4666C189.889 21.7973 189.57 22.0568 189.193 22.2451C188.821 22.4289 188.403 22.5207 187.939 22.5207C187.544 22.5207 187.206 22.461 186.926 22.3416C186.646 22.2176 186.396 22.0476 186.175 21.8317V24.7255H184.473V15.3483H185.514C185.734 15.3483 185.879 15.4517 185.948 15.6584L186.086 16.3129ZM195.433 15.2381C195.957 15.2381 196.432 15.3231 196.86 15.493C197.291 15.663 197.659 15.9041 197.962 16.2165C198.27 16.5288 198.506 16.9101 198.672 17.3602C198.837 17.8103 198.92 18.3133 198.92 18.8691C198.92 19.4295 198.837 19.9347 198.672 20.3849C198.506 20.835 198.27 21.2185 197.962 21.5355C197.659 21.8524 197.291 22.0959 196.86 22.2658C196.432 22.4358 195.957 22.5207 195.433 22.5207C194.905 22.5207 194.425 22.4358 193.993 22.2658C193.562 22.0959 193.192 21.8524 192.884 21.5355C192.581 21.2185 192.344 20.835 192.174 20.3849C192.009 19.9347 191.926 19.4295 191.926 18.8691C191.926 18.3133 192.009 17.8103 192.174 17.3602C192.344 16.9101 192.581 16.5288 192.884 16.2165C193.192 15.9041 193.562 15.663 193.993 15.493C194.425 15.3231 194.905 15.2381 195.433 15.2381ZM195.433 21.2117C196.021 21.2117 196.455 21.0141 196.736 20.6191C197.02 20.2241 197.163 19.6453 197.163 18.8829C197.163 18.1204 197.02 17.5393 196.736 17.1397C196.455 16.7401 196.021 16.5403 195.433 16.5403C194.836 16.5403 194.393 16.7424 194.104 17.1466C193.819 17.5462 193.676 18.125 193.676 18.8829C193.676 19.6408 193.819 20.2195 194.104 20.6191C194.393 21.0141 194.836 21.2117 195.433 21.2117ZM206.397 15.3483L202.546 24.3603C202.495 24.4798 202.429 24.5693 202.346 24.629C202.268 24.6934 202.146 24.7255 201.981 24.7255H200.713L202.036 21.8869L199.177 15.3483H200.672C200.805 15.3483 200.908 15.3805 200.982 15.4448C201.06 15.5091 201.117 15.5826 201.154 15.6653L202.656 19.3307C202.706 19.4547 202.748 19.5787 202.78 19.7028C202.817 19.8268 202.851 19.9531 202.883 20.0817C202.925 19.9531 202.966 19.8268 203.007 19.7028C203.049 19.5742 203.095 19.4478 203.145 19.3238L204.564 15.6653C204.601 15.5734 204.661 15.4976 204.744 15.4379C204.831 15.3782 204.927 15.3483 205.033 15.3483H206.397ZM210.155 15.2381C210.679 15.2381 211.154 15.3231 211.581 15.493C212.013 15.663 212.381 15.9041 212.684 16.2165C212.992 16.5288 213.228 16.9101 213.393 17.3602C213.559 17.8103 213.641 18.3133 213.641 18.8691C213.641 19.4295 213.559 19.9347 213.393 20.3849C213.228 20.835 212.992 21.2185 212.684 21.5355C212.381 21.8524 212.013 22.0959 211.581 22.2658C211.154 22.4358 210.679 22.5207 210.155 22.5207C209.627 22.5207 209.147 22.4358 208.715 22.2658C208.283 22.0959 207.914 21.8524 207.606 21.5355C207.303 21.2185 207.066 20.835 206.896 20.3849C206.731 19.9347 206.648 19.4295 206.648 18.8691C206.648 18.3133 206.731 17.8103 206.896 17.3602C207.066 16.9101 207.303 16.5288 207.606 16.2165C207.914 15.9041 208.283 15.663 208.715 15.493C209.147 15.3231 209.627 15.2381 210.155 15.2381ZM210.155 21.2117C210.743 21.2117 211.177 21.0141 211.457 20.6191C211.742 20.2241 211.885 19.6453 211.885 18.8829C211.885 18.1204 211.742 17.5393 211.457 17.1397C211.177 16.7401 210.743 16.5403 210.155 16.5403C209.558 16.5403 209.115 16.7424 208.825 17.1466C208.541 17.5462 208.398 18.125 208.398 18.8829C208.398 19.6408 208.541 20.2195 208.825 20.6191C209.115 21.0141 209.558 21.2117 210.155 21.2117ZM126.313 35.436C126.313 36.1663 126.191 36.8438 125.948 37.4685C125.709 38.0886 125.369 38.626 124.928 39.0807C124.487 39.5355 123.957 39.8915 123.337 40.1487C122.717 40.4013 122.028 40.5276 121.27 40.5276C120.517 40.5276 119.83 40.4013 119.21 40.1487C118.59 39.8915 118.057 39.5355 117.611 39.0807C117.17 38.626 116.828 38.0886 116.585 37.4685C116.341 36.8438 116.22 36.1663 116.22 35.436C116.22 34.7057 116.341 34.0304 116.585 33.4104C116.828 32.7857 117.17 32.246 117.611 31.7912C118.057 31.3365 118.59 30.9828 119.21 30.7302C119.83 30.473 120.517 30.3443 121.27 30.3443C121.775 30.3443 122.25 30.4041 122.696 30.5235C123.142 30.6383 123.55 30.8037 123.922 31.0196C124.294 31.2308 124.627 31.4904 124.921 31.7981C125.22 32.1013 125.473 32.4412 125.679 32.8178C125.886 33.1945 126.042 33.6033 126.148 34.0442C126.258 34.4852 126.313 34.9491 126.313 35.436ZM124.418 35.436C124.418 34.8894 124.345 34.4002 124.198 33.9684C124.051 33.5321 123.842 33.1623 123.571 32.8592C123.3 32.556 122.969 32.324 122.579 32.1633C122.193 32.0025 121.757 31.9221 121.27 31.9221C120.783 31.9221 120.344 32.0025 119.954 32.1633C119.568 32.324 119.237 32.556 118.962 32.8592C118.691 33.1623 118.482 33.5321 118.335 33.9684C118.188 34.4002 118.114 34.8894 118.114 35.436C118.114 35.9826 118.188 36.4741 118.335 36.9104C118.482 37.3422 118.691 37.7097 118.962 38.0128C119.237 38.3114 119.568 38.541 119.954 38.7018C120.344 38.8626 120.783 38.9429 121.27 38.9429C121.757 38.9429 122.193 38.8626 122.579 38.7018C122.969 38.541 123.3 38.3114 123.571 38.0128C123.842 37.7097 124.051 37.3422 124.198 36.9104C124.345 36.4741 124.418 35.9826 124.418 35.436ZM124.177 27.5953L121.945 29.5658C121.853 29.6485 121.766 29.699 121.683 29.7174C121.601 29.7357 121.495 29.7449 121.366 29.7449H120.133L121.573 27.8778C121.619 27.8135 121.665 27.7629 121.711 27.7262C121.757 27.6848 121.807 27.655 121.862 27.6366C121.917 27.6182 121.977 27.6068 122.041 27.6022C122.11 27.5976 122.191 27.5953 122.283 27.5953H124.177ZM129.253 38.5847C129.446 38.8189 129.655 38.9843 129.88 39.0807C130.109 39.1772 130.358 39.2254 130.624 39.2254C130.881 39.2254 131.113 39.1772 131.32 39.0807C131.527 38.9843 131.701 38.8373 131.843 38.6398C131.99 38.4423 132.103 38.1942 132.181 37.8957C132.259 37.5925 132.298 37.2365 132.298 36.8277C132.298 36.4144 132.264 36.0653 132.195 35.7805C132.131 35.4911 132.036 35.2568 131.912 35.0777C131.788 34.8986 131.637 34.7677 131.458 34.685C131.283 34.6023 131.083 34.561 130.858 34.561C130.505 34.561 130.204 34.6368 129.956 34.7883C129.708 34.9353 129.473 35.1443 129.253 35.4153V38.5847ZM129.163 34.3129C129.453 33.9868 129.781 33.7227 130.149 33.5206C130.516 33.3185 130.948 33.2174 131.444 33.2174C131.83 33.2174 132.181 33.2978 132.498 33.4586C132.82 33.6193 133.095 33.8536 133.325 34.1614C133.559 34.4645 133.738 34.8412 133.862 35.2913C133.991 35.7368 134.055 36.249 134.055 36.8277C134.055 37.356 133.984 37.8452 133.842 38.2953C133.699 38.7454 133.495 39.1359 133.228 39.4666C132.966 39.7973 132.647 40.0568 132.271 40.2451C131.899 40.4289 131.481 40.5207 131.017 40.5207C130.622 40.5207 130.284 40.461 130.004 40.3416C129.724 40.2176 129.473 40.0476 129.253 39.8317V42.7255H127.551V33.3483H128.591C128.812 33.3483 128.957 33.4517 129.025 33.6584L129.163 34.3129ZM142.42 40.4174H140.718V34.623H137.438V38.4538C137.438 38.6742 137.491 38.8465 137.597 38.9705C137.707 39.0945 137.856 39.1565 138.045 39.1565C138.15 39.1565 138.238 39.1451 138.306 39.1221C138.38 39.0945 138.442 39.067 138.493 39.0394C138.548 39.0118 138.596 38.9866 138.637 38.9636C138.679 38.9361 138.72 38.9223 138.761 38.9223C138.812 38.9223 138.853 38.9361 138.885 38.9636C138.917 38.9866 138.952 39.0233 138.989 39.0739L139.498 39.9006C139.25 40.1073 138.966 40.2635 138.644 40.3692C138.323 40.4748 137.99 40.5276 137.645 40.5276C137.03 40.5276 136.556 40.3554 136.226 40.0109C135.9 39.6618 135.737 39.1818 135.737 38.5709V34.623H135.013C134.921 34.623 134.843 34.5931 134.779 34.5334C134.715 34.4737 134.682 34.3841 134.682 34.2647V33.5895L135.819 33.3966L136.178 31.4743C136.2 31.3824 136.244 31.3112 136.308 31.2607C136.373 31.2102 136.455 31.1849 136.556 31.1849H137.438V33.4104H142.42V40.4174ZM142.716 31.2607C142.716 31.4077 142.686 31.5478 142.626 31.681C142.567 31.8096 142.486 31.9221 142.385 32.0186C142.289 32.1151 142.172 32.1931 142.034 32.2528C141.901 32.308 141.758 32.3355 141.607 32.3355C141.46 32.3355 141.322 32.308 141.193 32.2528C141.065 32.1931 140.952 32.1151 140.856 32.0186C140.759 31.9221 140.681 31.8096 140.622 31.681C140.566 31.5478 140.539 31.4077 140.539 31.2607C140.539 31.1091 140.566 30.969 140.622 30.8404C140.681 30.7072 140.759 30.5924 140.856 30.4959C140.952 30.3949 141.065 30.3168 141.193 30.2617C141.322 30.202 141.46 30.1721 141.607 30.1721C141.758 30.1721 141.901 30.202 142.034 30.2617C142.172 30.3168 142.289 30.3949 142.385 30.4959C142.486 30.5924 142.567 30.7072 142.626 30.8404C142.686 30.969 142.716 31.1091 142.716 31.2607ZM149.221 34.8435C149.17 34.9078 149.12 34.9583 149.069 34.995C149.023 35.0318 148.954 35.0502 148.863 35.0502C148.775 35.0502 148.69 35.0249 148.608 34.9744C148.525 34.9192 148.426 34.8595 148.311 34.7952C148.197 34.7263 148.059 34.6666 147.898 34.6161C147.742 34.561 147.547 34.5334 147.312 34.5334C147.014 34.5334 146.752 34.5885 146.527 34.6988C146.302 34.8044 146.114 34.9583 145.962 35.1604C145.815 35.3625 145.705 35.6082 145.631 35.8976C145.558 36.1824 145.521 36.5062 145.521 36.8691C145.521 37.2457 145.56 37.581 145.638 37.875C145.721 38.169 145.838 38.417 145.989 38.6191C146.141 38.8166 146.325 38.9682 146.541 39.0739C146.757 39.1749 147 39.2254 147.271 39.2254C147.542 39.2254 147.76 39.1933 147.926 39.129C148.096 39.0601 148.238 38.9866 148.353 38.9085C148.468 38.8258 148.566 38.7523 148.649 38.688C148.736 38.6191 148.833 38.5847 148.938 38.5847C149.076 38.5847 149.18 38.6375 149.248 38.7431L149.738 39.3632C149.549 39.5837 149.345 39.7697 149.124 39.9213C148.904 40.0683 148.674 40.1877 148.435 40.2796C148.201 40.3669 147.958 40.4289 147.705 40.4656C147.457 40.5024 147.209 40.5207 146.961 40.5207C146.525 40.5207 146.114 40.4404 145.728 40.2796C145.342 40.1142 145.004 39.8754 144.715 39.563C144.425 39.2507 144.196 38.8695 144.026 38.4193C143.861 37.9646 143.778 37.4478 143.778 36.8691C143.778 36.35 143.851 35.8701 143.998 35.4291C144.15 34.9835 144.37 34.6 144.66 34.2785C144.949 33.9524 145.307 33.6974 145.735 33.5137C146.162 33.33 146.653 33.2381 147.209 33.2381C147.737 33.2381 148.199 33.3231 148.594 33.493C148.993 33.663 149.352 33.9064 149.669 34.2234L149.221 34.8435ZM153.811 33.2381C154.335 33.2381 154.81 33.3231 155.238 33.493C155.669 33.663 156.037 33.9041 156.34 34.2165C156.648 34.5288 156.884 34.9101 157.05 35.3602C157.215 35.8103 157.298 36.3133 157.298 36.8691C157.298 37.4295 157.215 37.9347 157.05 38.3849C156.884 38.835 156.648 39.2185 156.34 39.5355C156.037 39.8524 155.669 40.0959 155.238 40.2658C154.81 40.4358 154.335 40.5207 153.811 40.5207C153.283 40.5207 152.803 40.4358 152.371 40.2658C151.94 40.0959 151.57 39.8524 151.262 39.5355C150.959 39.2185 150.722 38.835 150.552 38.3849C150.387 37.9347 150.304 37.4295 150.304 36.8691C150.304 36.3133 150.387 35.8103 150.552 35.3602C150.722 34.9101 150.959 34.5288 151.262 34.2165C151.57 33.9041 151.94 33.663 152.371 33.493C152.803 33.3231 153.283 33.2381 153.811 33.2381ZM153.811 39.2117C154.399 39.2117 154.833 39.0141 155.114 38.6191C155.398 38.2241 155.541 37.6453 155.541 36.8829C155.541 36.1204 155.398 35.5393 155.114 35.1397C154.833 34.7401 154.399 34.5403 153.811 34.5403C153.214 34.5403 152.771 34.7424 152.482 35.1466C152.197 35.5462 152.054 36.125 152.054 36.8829C152.054 37.6408 152.197 38.2195 152.482 38.6191C152.771 39.0141 153.214 39.2117 153.811 39.2117Z" fill="white" fill-opacity="0.8"/>
</svg>
